<mxfile host="app.diagrams.net" modified="2023-12-19T04:18:28.313Z" agent="Mozilla/5.0 (Windows NT 10.0; Win64; x64; rv:120.0) Gecko/20100101 Firefox/120.0" version="22.1.11" etag="oMRRgrgSiwF4NRexyo2O" type="github">
  <diagram name="第 1 页" id="phzxQ8_I05pbD8sAZqLL">
    <mxGraphModel>
      <root>
        <mxCell id="0" />
        <mxCell id="1" parent="0" />
      </root>
    </mxGraphModel>
  </diagram>
</mxfile>
